<svg width="40" height="37" viewBox="0 0 40 37" fill="none" xmlns="http://www.w3.org/2000/svg">
<g filter="url(#filter0_d_2_143)">
<path fill-rule="evenodd" clip-rule="evenodd" d="M5.60002 7.20001C5.28176 7.20001 4.97654 7.32644 4.7515 7.55148C4.52645 7.77653 4.40002 8.08175 4.40002 8.40001C4.40002 8.71827 4.52645 9.0235 4.7515 9.24854C4.97654 9.47358 5.28176 9.60001 5.60002 9.60001H34.4C34.7183 9.60001 35.0235 9.47358 35.2486 9.24854C35.4736 9.0235 35.6 8.71827 35.6 8.40001C35.6 8.08175 35.4736 7.77653 35.2486 7.55148C35.0235 7.32644 34.7183 7.20001 34.4 7.20001H5.60002ZM4.40002 18C4.40002 17.6818 4.52645 17.3765 4.7515 17.1515C4.97654 16.9264 5.28176 16.8 5.60002 16.8H34.4C34.7183 16.8 35.0235 16.9264 35.2486 17.1515C35.4736 17.3765 35.6 17.6818 35.6 18C35.6 18.3183 35.4736 18.6235 35.2486 18.8485C35.0235 19.0736 34.7183 19.2 34.4 19.2H5.60002C5.28176 19.2 4.97654 19.0736 4.7515 18.8485C4.52645 18.6235 4.40002 18.3183 4.40002 18ZM4.40002 27.6C4.40002 27.2818 4.52645 26.9765 4.7515 26.7515C4.97654 26.5264 5.28176 26.4 5.60002 26.4H34.4C34.7183 26.4 35.0235 26.5264 35.2486 26.7515C35.4736 26.9765 35.6 27.2818 35.6 27.6C35.6 27.9183 35.4736 28.2235 35.2486 28.4485C35.0235 28.6736 34.7183 28.8 34.4 28.8H5.60002C5.28176 28.8 4.97654 28.6736 4.7515 28.4485C4.52645 28.2235 4.40002 27.9183 4.40002 27.6Z" fill="#00579C"/>
</g>
<defs>
<filter id="filter0_d_2_143" x="-2" y="0" width="44" height="44" filterUnits="userSpaceOnUse" color-interpolation-filters="sRGB">
<feFlood flood-opacity="0" result="BackgroundImageFix"/>
<feColorMatrix in="SourceAlpha" type="matrix" values="0 0 0 0 0 0 0 0 0 0 0 0 0 0 0 0 0 0 127 0" result="hardAlpha"/>
<feOffset dy="4"/>
<feGaussianBlur stdDeviation="2"/>
<feComposite in2="hardAlpha" operator="out"/>
<feColorMatrix type="matrix" values="0 0 0 0 0 0 0 0 0 0 0 0 0 0 0 0 0 0 0.25 0"/>
<feBlend mode="normal" in2="BackgroundImageFix" result="effect1_dropShadow_2_143"/>
<feBlend mode="normal" in="SourceGraphic" in2="effect1_dropShadow_2_143" result="shape"/>
</filter>
</defs>
</svg>
