<svg width="36" height="36" viewBox="0 0 36 36" fill="none" xmlns="http://www.w3.org/2000/svg">
<path d="M28.5 33V22.35C28.4997 20.9709 28.2277 19.6053 27.6996 18.3313C27.1715 17.0573 26.3975 15.8998 25.422 14.925L22.497 12V21.8805C22.497 23.2155 20.8815 23.886 19.9365 22.941L17.994 21C17.244 20.25 15.4425 19.8 14.241 21C13.041 22.2 13.491 24 14.241 24.75L22.497 33" stroke="#00579C" stroke-width="2" stroke-linecap="round" stroke-linejoin="round"/>
<path d="M13.5 3C13.5 4.9995 12.3 9 7.5 9M16.5 3H19.5C20.2956 3 21.0587 3.31607 21.6213 3.87868C22.1839 4.44129 22.5 5.20435 22.5 6V9L16.5 3ZM16.5 3C16.5 4.9995 17.7 9 22.5 9L16.5 3ZM16.5 3H13.5H16.5ZM22.5 9V18V9ZM7.5 18V21C7.5 21.7956 7.81607 22.5587 8.37868 23.1213C8.94129 23.6839 9.70435 24 10.5 24H13.5C13.5 22.0005 12.3 18 7.5 18ZM7.5 18V9V18ZM13.5 3H10.5C9.70435 3 8.94129 3.31607 8.37868 3.87868C7.81607 4.44129 7.5 5.20435 7.5 6V9L13.5 3Z" stroke="#00579C" stroke-width="2" stroke-linecap="round" stroke-linejoin="round"/>
<path d="M13.5 13.5C13.5 14.3284 14.1716 15 15 15C15.8284 15 16.5 14.3284 16.5 13.5C16.5 12.6716 15.8284 12 15 12C14.1716 12 13.5 12.6716 13.5 13.5Z" stroke="#00579C" stroke-width="2" stroke-linecap="round" stroke-linejoin="round"/>
</svg>
